<svg width="1280" height="720" viewBox="0 0 1280 720" fill="none" xmlns="http://www.w3.org/2000/svg">
  <rect width="1280" height="720" fill="#0D1117"/>
  <rect x="40" y="24" width="1200" height="56" rx="10" fill="#161B22" stroke="#30363D"/>
  <text x="68" y="58" fill="#E6EDF3" font-size="20" font-family="Inter, Arial">your-name / my-project</text>

  <rect x="90" y="116" width="1100" height="560" rx="14" fill="#161B22" stroke="#30363D"/>
  <text x="130" y="168" fill="#E6EDF3" font-size="30" font-family="Inter, Arial" font-weight="700">Repository files</text>

  <rect x="130" y="198" width="1040" height="46" rx="8" fill="#0D1117" stroke="#30363D"/>
  <circle cx="154" cy="221" r="8" fill="#238636"/>
  <text x="176" y="226" fill="#E6EDF3" font-size="15" font-family="Inter, Arial">chore: initial commit</text>
  <text x="930" y="226" fill="#8B949E" font-size="14" font-family="Inter, Arial">just now</text>

  <rect x="130" y="270" width="1040" height="340" rx="10" fill="#0D1117" stroke="#30363D"/>
  <rect x="150" y="296" width="1000" height="42" rx="6" fill="#161B22"/>
  <text x="172" y="322" fill="#E6EDF3" font-size="15" font-family="Inter, Arial">README.md</text>
  <rect x="150" y="342" width="1000" height="42" rx="6" fill="#161B22"/>
  <text x="172" y="368" fill="#E6EDF3" font-size="15" font-family="Inter, Arial">index.html</text>
  <rect x="150" y="388" width="1000" height="42" rx="6" fill="#161B22"/>
  <text x="172" y="414" fill="#E6EDF3" font-size="15" font-family="Inter, Arial">assets/</text>
  <rect x="150" y="434" width="1000" height="42" rx="6" fill="#161B22"/>
  <text x="172" y="460" fill="#E6EDF3" font-size="15" font-family="Inter, Arial">starter/</text>
  <rect x="150" y="480" width="1000" height="42" rx="6" fill="#161B22"/>
  <text x="172" y="506" fill="#E6EDF3" font-size="15" font-family="Inter, Arial">lessons/</text>

  <rect x="130" y="626" width="1040" height="34" rx="8" fill="#13233A"/>
  <text x="150" y="649" fill="#7EE787" font-size="14" font-family="Inter, Arial" font-weight="700">✅ Nếu thấy danh sách file và commit này, bạn đã push từ local lên GitHub thành công.</text>
</svg>
